<svg xmlns="http://www.w3.org/2000/svg" xmlns:xlink="http://www.w3.org/1999/xlink" width="500" zoomAndPan="magnify" viewBox="0 0 375 374.999991" height="500" preserveAspectRatio="xMidYMid meet" version="1.0"><defs><g/><clipPath id="a18165cf21"><path d="M 180.21875 176.25 L 194.78125 176.25 L 194.78125 190.8125 L 180.21875 190.8125 Z M 180.21875 176.25 " clip-rule="nonzero"/></clipPath><clipPath id="279d0e89b4"><path d="M 187.5 176.25 L 194.78125 181.8125 L 192 190.8125 L 183 190.8125 L 180.21875 181.8125 Z M 187.5 176.25 " clip-rule="nonzero"/></clipPath><clipPath id="26c1d0fcd2"><path d="M 182.105469 178.136719 L 192.894531 178.136719 L 192.894531 189.558594 L 182.105469 189.558594 Z M 182.105469 178.136719 " clip-rule="nonzero"/></clipPath><clipPath id="a0513e86d3"><path d="M 187.5 178.136719 L 192.894531 182.496094 L 190.835938 189.550781 L 184.164062 189.550781 L 182.105469 182.496094 Z M 187.5 178.136719 " clip-rule="nonzero"/></clipPath><clipPath id="0e60811fc3"><path d="M 182.105469 178.136719 L 192.855469 178.136719 L 192.855469 189.453125 L 182.105469 189.453125 Z M 182.105469 178.136719 " clip-rule="nonzero"/></clipPath><clipPath id="6dcba86ec1"><path d="M 187.5 178.136719 L 192.894531 182.492188 L 190.832031 189.546875 L 184.164062 189.546875 L 182.105469 182.492188 Z M 187.5 178.136719 " clip-rule="nonzero"/></clipPath></defs><g fill="#201d1d" fill-opacity="1"><g transform="translate(52.419391, 192.155963)"><g><path d="M 3 -9.046875 C 2.976562 -16.691406 2.976562 -20.523438 3 -20.546875 C 3 -20.566406 4.953125 -20.578125 8.859375 -20.578125 C 10.816406 -20.578125 12.304688 -20.570312 13.328125 -20.5625 C 14.347656 -20.550781 14.929688 -20.535156 15.078125 -20.515625 C 16.242188 -20.296875 17.164062 -19.945312 17.84375 -19.46875 C 17.90625 -19.457031 18 -19.398438 18.125 -19.296875 C 18.25 -19.203125 18.375 -19.09375 18.5 -18.96875 C 18.632812 -18.851562 18.75 -18.734375 18.84375 -18.609375 C 18.945312 -18.492188 19 -18.414062 19 -18.375 C 19.019531 -18.351562 19.050781 -18.34375 19.09375 -18.34375 C 19.132812 -18.300781 19.15625 -18.253906 19.15625 -18.203125 C 19.25 -18.117188 19.335938 -17.960938 19.421875 -17.734375 C 19.515625 -17.503906 19.59375 -17.257812 19.65625 -17 C 19.726562 -16.75 19.785156 -16.5 19.828125 -16.25 C 19.867188 -16 19.898438 -15.804688 19.921875 -15.671875 C 20.003906 -14.992188 20.015625 -14.4375 19.953125 -14 C 19.953125 -13.976562 19.953125 -13.941406 19.953125 -13.890625 C 19.953125 -13.847656 19.941406 -13.796875 19.921875 -13.734375 C 19.921875 -13.597656 19.910156 -13.5 19.890625 -13.4375 C 19.847656 -13.320312 19.828125 -13.242188 19.828125 -13.203125 C 19.648438 -12.035156 19.078125 -11.113281 18.109375 -10.4375 C 17.890625 -10.320312 17.679688 -10.207031 17.484375 -10.09375 C 17.285156 -9.988281 17.078125 -9.90625 16.859375 -9.84375 C 16.640625 -9.757812 16.609375 -9.71875 16.765625 -9.71875 C 16.804688 -9.71875 16.828125 -9.707031 16.828125 -9.6875 C 16.847656 -9.664062 16.867188 -9.65625 16.890625 -9.65625 C 17.003906 -9.65625 17.148438 -9.617188 17.328125 -9.546875 C 17.328125 -9.546875 17.425781 -9.492188 17.625 -9.390625 C 18.675781 -8.921875 19.457031 -8.320312 19.96875 -7.59375 C 20.488281 -6.875 20.789062 -5.9375 20.875 -4.78125 C 20.894531 -4.382812 20.894531 -4.003906 20.875 -3.640625 C 20.851562 -3.273438 20.800781 -2.941406 20.71875 -2.640625 C 20.695312 -2.585938 20.6875 -2.535156 20.6875 -2.484375 C 20.6875 -2.429688 20.6875 -2.394531 20.6875 -2.375 C 20.632812 -2.082031 20.539062 -1.753906 20.40625 -1.390625 C 20.28125 -1.035156 20.140625 -0.726562 19.984375 -0.46875 C 19.960938 -0.457031 19.9375 -0.429688 19.90625 -0.390625 C 19.875 -0.347656 19.835938 -0.304688 19.796875 -0.265625 C 19.546875 0.148438 19.238281 0.523438 18.875 0.859375 C 18.582031 1.097656 18.40625 1.21875 18.34375 1.21875 C 18.34375 1.21875 18.320312 1.238281 18.28125 1.28125 C 18.226562 1.34375 18.046875 1.445312 17.734375 1.59375 C 17.429688 1.738281 17.160156 1.863281 16.921875 1.96875 C 16.742188 2 16.625 2.023438 16.5625 2.046875 C 16.5 2.066406 16.410156 2.097656 16.296875 2.140625 C 16.253906 2.140625 16.21875 2.144531 16.1875 2.15625 C 16.15625 2.164062 16.125 2.171875 16.09375 2.171875 C 16.050781 2.171875 16.007812 2.179688 15.96875 2.203125 C 15.84375 2.242188 15.671875 2.273438 15.453125 2.296875 C 15.242188 2.328125 15 2.363281 14.71875 2.40625 C 14.363281 2.46875 12.332031 2.5 8.625 2.5 C 4.914062 2.5 3.050781 2.488281 3.03125 2.46875 C 3.007812 2.445312 3 -1.390625 3 -9.046875 Z M 12.8125 -18.34375 C 12.675781 -18.363281 12.3125 -18.375 11.71875 -18.375 C 11.125 -18.375 10.28125 -18.375 9.1875 -18.375 L 6.03125 -18.40625 L 6.0625 -14.6875 L 6.0625 -10.96875 L 9.421875 -11 C 10.554688 -11 11.4375 -11 12.0625 -11 C 12.6875 -11 13.046875 -11.007812 13.140625 -11.03125 C 13.472656 -11.09375 13.742188 -11.148438 13.953125 -11.203125 C 14.921875 -11.421875 15.664062 -11.863281 16.1875 -12.53125 C 16.71875 -13.195312 16.984375 -14.003906 16.984375 -14.953125 C 16.984375 -15.171875 16.984375 -15.347656 16.984375 -15.484375 C 16.984375 -15.628906 16.960938 -15.75 16.921875 -15.84375 C 16.742188 -16.65625 16.382812 -17.234375 15.84375 -17.578125 C 15.207031 -18.023438 14.195312 -18.28125 12.8125 -18.34375 Z M 14.125 -8.734375 C 13.988281 -8.734375 13.570312 -8.734375 12.875 -8.734375 C 12.175781 -8.734375 11.1875 -8.742188 9.90625 -8.765625 L 6.0625 -8.765625 L 6.0625 0.296875 L 9.125 0.296875 C 10.257812 0.273438 11.195312 0.257812 11.9375 0.25 C 12.675781 0.238281 13.226562 0.210938 13.59375 0.171875 C 14.914062 0.0351562 15.921875 -0.320312 16.609375 -0.90625 C 17.304688 -1.488281 17.707031 -2.457031 17.8125 -3.8125 C 17.851562 -4.519531 17.828125 -5.140625 17.734375 -5.671875 C 17.648438 -6.210938 17.5 -6.671875 17.28125 -7.046875 C 16.894531 -7.703125 16.226562 -8.175781 15.28125 -8.46875 C 14.769531 -8.632812 14.492188 -8.707031 14.453125 -8.6875 C 14.453125 -8.6875 14.34375 -8.703125 14.125 -8.734375 Z M 14.125 -8.734375 "/></g></g></g><g fill="#201d1d" fill-opacity="1"><g transform="translate(82.319931, 192.155963)"><g><path d="M 3.1875 -20.578125 C 3.28125 -20.617188 5.960938 -20.617188 11.234375 -20.578125 L 19.328125 -20.578125 L 19.328125 -18.171875 L 12.71875 -18.171875 C 8.300781 -18.171875 6.082031 -18.160156 6.0625 -18.140625 C 6.039062 -18.117188 6.03125 -17.046875 6.03125 -14.921875 L 6.03125 -10.640625 L 12.109375 -10.640625 C 16.109375 -10.640625 18.109375 -10.617188 18.109375 -10.578125 L 18.109375 -8.234375 L 12.109375 -8.234375 C 8.097656 -8.234375 6.070312 -8.210938 6.03125 -8.171875 L 6.03125 -0.0625 L 6.0625 0.0625 L 19.328125 0.0625 L 19.328125 2.46875 L 2.96875 2.46875 L 2.96875 -20.578125 Z M 3.1875 -20.578125 "/></g></g></g><g fill="#201d1d" fill-opacity="1"><g transform="translate(110.793966, 192.155963)"><g><path d="M 8.71875 2.53125 L 8.71875 -17.984375 L 5.03125 -17.953125 C 3.800781 -17.953125 2.863281 -17.953125 2.21875 -17.953125 C 1.570312 -17.953125 1.207031 -17.960938 1.125 -17.984375 L 0.890625 -17.984375 L 0.890625 -20.515625 L 19.625 -20.515625 L 19.65625 -19.265625 L 19.65625 -17.984375 L 15.734375 -17.984375 C 15.078125 -17.984375 14.503906 -17.976562 14.015625 -17.96875 C 13.535156 -17.957031 13.125 -17.953125 12.78125 -17.953125 C 12.382812 -17.953125 12.054688 -17.953125 11.796875 -17.953125 C 11.785156 -17.941406 11.78125 -17.773438 11.78125 -17.453125 C 11.78125 -17.140625 11.78125 -16.691406 11.78125 -16.109375 L 11.78125 -14.125 C 11.757812 -14.101562 11.757812 -14.082031 11.78125 -14.0625 C 11.78125 -14.039062 11.78125 -13.34375 11.78125 -11.96875 C 11.78125 -10.59375 11.785156 -8.515625 11.796875 -5.734375 C 11.796875 -0.242188 11.789062 2.5 11.78125 2.5 C 11.757812 2.519531 11.242188 2.53125 10.234375 2.53125 Z M 8.71875 2.53125 "/></g></g></g><g fill="#201d1d" fill-opacity="1"><g transform="translate(138.554762, 192.155963)"><g><path d="M 3 -20.3125 L 3 -20.640625 L 6.03125 -20.640625 L 6.03125 -10.875 L 11.296875 -10.90625 L 17.78125 -10.90625 L 17.78125 -20.640625 L 20.8125 -20.640625 L 20.8125 2.5 L 17.78125 2.5 L 17.78125 -8.359375 L 6.03125 -8.359375 L 6.03125 2.46875 L 2.96875 2.46875 L 2.96875 -8.734375 C 2.988281 -12.523438 3 -15.375 3 -17.28125 C 3 -19.195312 3 -20.207031 3 -20.3125 Z M 3 -20.3125 "/></g></g></g><g fill="#201d1d" fill-opacity="1"><g transform="translate(169.560012, 192.155963)"><g/></g></g><g fill="#201d1d" fill-opacity="1"><g transform="translate(191.050164, 192.155963)"><g/></g></g><g fill="#201d1d" fill-opacity="1"><g transform="translate(212.544384, 192.155963)"><g><path d="M 8.359375 -19.625 C 8.453125 -19.925781 8.519531 -20.148438 8.5625 -20.296875 C 8.601562 -20.441406 8.625 -20.523438 8.625 -20.546875 C 8.625 -20.566406 9.546875 -20.578125 11.390625 -20.578125 L 14.125 -20.578125 L 14.8125 -18.53125 C 15.25 -17.238281 15.46875 -16.550781 15.46875 -16.46875 C 15.476562 -16.445312 15.484375 -16.410156 15.484375 -16.359375 C 15.523438 -16.316406 15.625 -16.035156 15.78125 -15.515625 C 15.945312 -15.023438 16.039062 -14.757812 16.0625 -14.71875 C 16.0625 -14.71875 16.078125 -14.640625 16.109375 -14.484375 C 16.148438 -14.378906 16.203125 -14.253906 16.265625 -14.109375 C 16.328125 -13.960938 16.367188 -13.859375 16.390625 -13.796875 C 16.398438 -13.753906 16.4375 -13.597656 16.5 -13.328125 C 16.5625 -13.160156 16.617188 -13.003906 16.671875 -12.859375 C 16.734375 -12.710938 16.785156 -12.5625 16.828125 -12.40625 C 16.984375 -12.019531 17.0625 -11.78125 17.0625 -11.6875 C 17.082031 -11.664062 17.09375 -11.632812 17.09375 -11.59375 C 17.09375 -11.59375 17.09375 -11.582031 17.09375 -11.5625 C 17.09375 -11.582031 17.113281 -11.535156 17.15625 -11.421875 C 17.195312 -11.265625 17.21875 -11.191406 17.21875 -11.203125 C 17.257812 -11.085938 17.28125 -11.03125 17.28125 -11.03125 C 17.28125 -11.03125 17.328125 -10.878906 17.421875 -10.578125 C 17.523438 -10.304688 17.585938 -10.160156 17.609375 -10.140625 C 17.617188 -10.078125 17.628906 -10.003906 17.640625 -9.921875 C 17.648438 -9.847656 17.675781 -9.757812 17.71875 -9.65625 C 17.757812 -9.519531 17.804688 -9.382812 17.859375 -9.25 C 17.921875 -9.125 17.972656 -8.984375 18.015625 -8.828125 C 18.140625 -8.535156 18.203125 -8.335938 18.203125 -8.234375 C 18.234375 -8.117188 18.257812 -8.050781 18.28125 -8.03125 C 18.300781 -7.988281 18.3125 -7.957031 18.3125 -7.9375 C 18.3125 -7.914062 18.320312 -7.882812 18.34375 -7.84375 C 18.382812 -7.6875 18.488281 -7.34375 18.65625 -6.8125 C 18.820312 -6.289062 19.066406 -5.578125 19.390625 -4.671875 C 19.390625 -4.671875 19.46875 -4.460938 19.625 -4.046875 C 19.644531 -3.960938 19.734375 -3.6875 19.890625 -3.21875 C 19.953125 -3 20.007812 -2.800781 20.0625 -2.625 C 20.125 -2.457031 20.175781 -2.328125 20.21875 -2.234375 C 20.394531 -1.660156 20.550781 -1.160156 20.6875 -0.734375 C 20.832031 -0.304688 20.953125 0.078125 21.046875 0.421875 C 21.148438 0.710938 21.210938 0.878906 21.234375 0.921875 C 21.253906 0.941406 21.269531 0.984375 21.28125 1.046875 C 21.300781 1.117188 21.332031 1.207031 21.375 1.3125 C 21.394531 1.40625 21.425781 1.503906 21.46875 1.609375 C 21.507812 1.722656 21.550781 1.859375 21.59375 2.015625 C 21.6875 2.273438 21.734375 2.425781 21.734375 2.46875 L 21.734375 2.53125 L 20.28125 2.53125 C 19.289062 2.53125 18.785156 2.519531 18.765625 2.5 C 18.765625 2.457031 18.707031 2.285156 18.59375 1.984375 C 18.488281 1.691406 18.347656 1.257812 18.171875 0.6875 C 18.066406 0.382812 17.941406 0.0195312 17.796875 -0.40625 C 17.648438 -0.832031 17.488281 -1.320312 17.3125 -1.875 C 17.144531 -2.332031 17.015625 -2.691406 16.921875 -2.953125 C 16.835938 -3.222656 16.785156 -3.398438 16.765625 -3.484375 C 16.742188 -3.597656 16.71875 -3.675781 16.6875 -3.71875 L 6.328125 -3.71875 C 6.304688 -3.71875 6.289062 -3.710938 6.28125 -3.703125 C 6.28125 -3.691406 6.269531 -3.6875 6.25 -3.6875 C 6.226562 -3.664062 6.21875 -3.65625 6.21875 -3.65625 C 6.195312 -3.613281 6.1875 -3.578125 6.1875 -3.546875 C 6.1875 -3.523438 6.175781 -3.492188 6.15625 -3.453125 C 6.15625 -3.472656 6.113281 -3.34375 6.03125 -3.0625 C 5.957031 -2.78125 5.867188 -2.515625 5.765625 -2.265625 C 5.503906 -1.546875 5.375 -1.15625 5.375 -1.09375 C 5.363281 -1.0625 5.335938 -0.96875 5.296875 -0.8125 C 5.253906 -0.664062 5.207031 -0.515625 5.15625 -0.359375 C 5.101562 -0.203125 5.054688 -0.0625 5.015625 0.0625 C 4.984375 0.195312 4.96875 0.265625 4.96875 0.265625 C 4.945312 0.222656 4.921875 0.253906 4.890625 0.359375 C 4.859375 0.472656 4.820312 0.582031 4.78125 0.6875 C 4.78125 0.707031 4.765625 0.773438 4.734375 0.890625 C 4.691406 0.953125 4.644531 1.085938 4.59375 1.296875 C 4.539062 1.503906 4.503906 1.617188 4.484375 1.640625 L 4.453125 1.671875 C 4.472656 1.671875 4.46875 1.726562 4.4375 1.84375 C 4.414062 1.957031 4.382812 2.035156 4.34375 2.078125 C 4.320312 2.117188 4.300781 2.164062 4.28125 2.21875 C 4.257812 2.28125 4.238281 2.363281 4.21875 2.46875 L 4.1875 2.53125 L 1.21875 2.53125 C 1.195312 2.507812 1.195312 2.476562 1.21875 2.4375 C 1.21875 2.351562 1.316406 2.015625 1.515625 1.421875 C 1.617188 1.148438 1.710938 0.863281 1.796875 0.5625 C 1.890625 0.269531 1.984375 -0.046875 2.078125 -0.390625 C 2.117188 -0.484375 2.191406 -0.703125 2.296875 -1.046875 C 2.410156 -1.398438 2.578125 -1.894531 2.796875 -2.53125 C 2.835938 -2.664062 2.910156 -2.910156 3.015625 -3.265625 C 3.128906 -3.628906 3.296875 -4.117188 3.515625 -4.734375 C 4.085938 -6.429688 4.59375 -7.972656 5.03125 -9.359375 C 5.320312 -10.253906 5.46875 -10.710938 5.46875 -10.734375 C 5.550781 -10.910156 5.628906 -11.128906 5.703125 -11.390625 C 5.785156 -11.660156 5.882812 -11.96875 6 -12.3125 C 6.144531 -12.726562 6.238281 -13.039062 6.28125 -13.25 C 6.332031 -13.457031 6.367188 -13.570312 6.390625 -13.59375 C 6.410156 -13.625 6.4375 -13.679688 6.46875 -13.765625 C 6.5 -13.847656 6.535156 -13.945312 6.578125 -14.0625 C 6.828125 -14.875 7.046875 -15.566406 7.234375 -16.140625 C 7.421875 -16.722656 7.578125 -17.210938 7.703125 -17.609375 L 7.765625 -17.75 C 7.785156 -17.789062 7.800781 -17.847656 7.8125 -17.921875 C 7.832031 -18.003906 7.863281 -18.097656 7.90625 -18.203125 C 7.925781 -18.234375 7.96875 -18.367188 8.03125 -18.609375 C 8.09375 -18.847656 8.203125 -19.1875 8.359375 -19.625 Z M 11.5625 -19.203125 C 11.488281 -19.484375 11.445312 -19.617188 11.4375 -19.609375 C 11.425781 -19.597656 11.421875 -19.582031 11.421875 -19.5625 C 11.421875 -19.519531 11.320312 -19.234375 11.125 -18.703125 C 11.039062 -18.484375 10.96875 -18.273438 10.90625 -18.078125 C 10.851562 -17.878906 10.804688 -17.703125 10.765625 -17.546875 C 10.722656 -17.398438 10.6875 -17.285156 10.65625 -17.203125 C 10.625 -17.128906 10.597656 -17.070312 10.578125 -17.03125 C 10.566406 -16.894531 10.519531 -16.757812 10.4375 -16.625 C 10.394531 -16.425781 10.363281 -16.316406 10.34375 -16.296875 C 10.300781 -16.210938 10.28125 -16.171875 10.28125 -16.171875 C 10.28125 -16.128906 10.207031 -15.863281 10.0625 -15.375 C 9.914062 -14.894531 9.675781 -14.179688 9.34375 -13.234375 C 9.175781 -12.773438 9.039062 -12.394531 8.9375 -12.09375 C 8.84375 -11.800781 8.773438 -11.585938 8.734375 -11.453125 C 8.722656 -11.347656 8.707031 -11.28125 8.6875 -11.25 C 8.664062 -11.21875 8.648438 -11.191406 8.640625 -11.171875 C 8.628906 -11.160156 8.625 -11.144531 8.625 -11.125 C 8.625 -11.101562 8.613281 -11.050781 8.59375 -10.96875 C 8.59375 -10.925781 8.582031 -10.875 8.5625 -10.8125 C 8.539062 -10.757812 8.519531 -10.691406 8.5 -10.609375 C 8.457031 -10.515625 8.425781 -10.4375 8.40625 -10.375 C 8.394531 -10.3125 8.378906 -10.265625 8.359375 -10.234375 C 8.316406 -10.109375 8.289062 -10.019531 8.28125 -9.96875 C 8.269531 -9.925781 8.242188 -9.882812 8.203125 -9.84375 C 8.203125 -9.820312 8.179688 -9.753906 8.140625 -9.640625 C 8.109375 -9.535156 8.082031 -9.445312 8.0625 -9.375 C 8.039062 -9.3125 8.03125 -9.25 8.03125 -9.1875 C 7.96875 -8.988281 7.925781 -8.878906 7.90625 -8.859375 C 7.882812 -8.835938 7.875 -8.804688 7.875 -8.765625 C 7.875 -8.734375 7.863281 -8.703125 7.84375 -8.671875 C 7.820312 -8.640625 7.765625 -8.484375 7.671875 -8.203125 C 7.648438 -8.148438 7.601562 -8.007812 7.53125 -7.78125 C 7.46875 -7.550781 7.425781 -7.375 7.40625 -7.25 C 7.28125 -6.9375 7.21875 -6.757812 7.21875 -6.71875 C 7.21875 -6.695312 8.628906 -6.6875 11.453125 -6.6875 L 15.703125 -6.6875 C 15.703125 -6.75 15.351562 -7.8125 14.65625 -9.875 C 13.445312 -13.414062 12.703125 -15.644531 12.421875 -16.5625 C 12.222656 -17.15625 12.109375 -17.492188 12.078125 -17.578125 C 11.992188 -17.828125 11.910156 -18.085938 11.828125 -18.359375 C 11.753906 -18.628906 11.664062 -18.910156 11.5625 -19.203125 Z M 11.5625 -19.203125 "/></g></g></g><g fill="#201d1d" fill-opacity="1"><g transform="translate(242.682675, 192.155963)"><g><path d="M 1.15625 -20.25 L 1.046875 -20.578125 L 4.1875 -20.578125 L 4.25 -20.34375 C 4.269531 -20.257812 4.289062 -20.179688 4.3125 -20.109375 C 4.332031 -20.046875 4.351562 -19.992188 4.375 -19.953125 C 4.375 -19.890625 4.410156 -19.769531 4.484375 -19.59375 C 4.503906 -19.550781 4.53125 -19.476562 4.5625 -19.375 C 4.59375 -19.28125 4.640625 -19.132812 4.703125 -18.9375 C 4.796875 -18.539062 4.851562 -18.320312 4.875 -18.28125 C 4.875 -18.25 4.90625 -18.144531 4.96875 -17.96875 C 5.03125 -17.800781 5.085938 -17.625 5.140625 -17.4375 C 5.203125 -17.25 5.253906 -17.070312 5.296875 -16.90625 C 5.347656 -16.738281 5.382812 -16.644531 5.40625 -16.625 L 5.40625 -16.53125 L 5.5 -16.328125 L 5.5 -16.234375 C 5.519531 -16.171875 5.546875 -16.097656 5.578125 -16.015625 C 5.609375 -15.941406 5.640625 -15.835938 5.671875 -15.703125 C 5.710938 -15.597656 5.742188 -15.5 5.765625 -15.40625 C 5.785156 -15.320312 5.804688 -15.257812 5.828125 -15.21875 C 5.867188 -15.039062 5.921875 -14.851562 5.984375 -14.65625 C 6.054688 -14.457031 6.132812 -14.25 6.21875 -14.03125 C 6.289062 -13.8125 6.367188 -13.535156 6.453125 -13.203125 C 6.546875 -12.867188 6.664062 -12.484375 6.8125 -12.046875 C 6.851562 -11.941406 6.882812 -11.828125 6.90625 -11.703125 C 6.9375 -11.585938 6.972656 -11.472656 7.015625 -11.359375 C 7.054688 -11.222656 7.097656 -11.082031 7.140625 -10.9375 C 7.179688 -10.800781 7.21875 -10.65625 7.25 -10.5 C 7.289062 -10.394531 7.328125 -10.285156 7.359375 -10.171875 C 7.390625 -10.066406 7.425781 -9.96875 7.46875 -9.875 C 7.488281 -9.789062 7.535156 -9.648438 7.609375 -9.453125 C 7.671875 -9.210938 7.726562 -9 7.78125 -8.8125 C 7.84375 -8.625 7.894531 -8.453125 7.9375 -8.296875 C 7.976562 -8.210938 8 -8.171875 8 -8.171875 C 8 -8.171875 8.019531 -8.113281 8.0625 -8 C 8.082031 -7.875 8.097656 -7.800781 8.109375 -7.78125 C 8.117188 -7.769531 8.140625 -7.710938 8.171875 -7.609375 C 8.210938 -7.453125 8.242188 -7.34375 8.265625 -7.28125 C 8.304688 -7.164062 8.328125 -7.101562 8.328125 -7.09375 C 8.328125 -7.082031 8.335938 -7.054688 8.359375 -7.015625 C 8.359375 -7.015625 8.378906 -6.945312 8.421875 -6.8125 C 8.472656 -6.6875 8.519531 -6.546875 8.5625 -6.390625 C 8.601562 -6.234375 8.640625 -6.085938 8.671875 -5.953125 C 8.710938 -5.828125 8.734375 -5.742188 8.734375 -5.703125 C 8.734375 -5.679688 8.742188 -5.664062 8.765625 -5.65625 C 8.804688 -5.570312 8.859375 -5.398438 8.921875 -5.140625 C 8.960938 -5.023438 8.988281 -4.96875 9 -4.96875 C 9.007812 -4.96875 9.015625 -4.957031 9.015625 -4.9375 C 9.015625 -4.851562 9.0625 -4.6875 9.15625 -4.4375 C 9.21875 -4.3125 9.265625 -4.175781 9.296875 -4.03125 C 9.335938 -3.882812 9.378906 -3.726562 9.421875 -3.5625 L 9.421875 -3.484375 C 9.460938 -3.421875 9.5 -3.316406 9.53125 -3.171875 C 9.5625 -3.035156 9.613281 -2.859375 9.6875 -2.640625 C 9.726562 -2.503906 9.765625 -2.382812 9.796875 -2.28125 C 9.828125 -2.1875 9.851562 -2.117188 9.875 -2.078125 C 9.9375 -1.785156 10.003906 -1.554688 10.078125 -1.390625 C 10.140625 -1.179688 10.179688 -1.078125 10.203125 -1.078125 C 10.222656 -1.085938 10.242188 -1.132812 10.265625 -1.21875 C 10.273438 -1.300781 10.289062 -1.359375 10.3125 -1.390625 C 10.332031 -1.429688 10.375 -1.5625 10.4375 -1.78125 C 11.113281 -3.707031 11.769531 -5.625 12.40625 -7.53125 C 13.050781 -9.445312 13.691406 -11.378906 14.328125 -13.328125 C 14.484375 -13.835938 14.644531 -14.347656 14.8125 -14.859375 C 14.988281 -15.378906 15.175781 -15.894531 15.375 -16.40625 C 15.414062 -16.53125 15.457031 -16.671875 15.5 -16.828125 C 15.550781 -16.984375 15.617188 -17.148438 15.703125 -17.328125 C 15.796875 -17.628906 15.875 -17.867188 15.9375 -18.046875 C 16 -18.222656 16.039062 -18.332031 16.0625 -18.375 C 16.09375 -18.476562 16.148438 -18.644531 16.234375 -18.875 C 16.316406 -19.113281 16.367188 -19.285156 16.390625 -19.390625 C 16.398438 -19.429688 16.445312 -19.554688 16.53125 -19.765625 C 16.613281 -19.984375 16.664062 -20.125 16.6875 -20.1875 L 16.796875 -20.578125 L 18.34375 -20.578125 C 19.351562 -20.578125 19.867188 -20.566406 19.890625 -20.546875 C 19.867188 -20.503906 19.847656 -20.445312 19.828125 -20.375 C 19.804688 -20.332031 19.785156 -20.265625 19.765625 -20.171875 C 19.753906 -20.085938 19.726562 -19.992188 19.6875 -19.890625 C 19.488281 -19.316406 19.328125 -18.859375 19.203125 -18.515625 C 19.085938 -18.179688 19.007812 -17.945312 18.96875 -17.8125 C 18.945312 -17.769531 18.925781 -17.703125 18.90625 -17.609375 C 18.882812 -17.523438 18.859375 -17.425781 18.828125 -17.3125 C 18.765625 -17.144531 18.722656 -17.050781 18.703125 -17.03125 C 18.679688 -17.019531 18.671875 -16.972656 18.671875 -16.890625 L 18.609375 -16.828125 C 18.585938 -16.765625 18.578125 -16.71875 18.578125 -16.6875 C 18.554688 -16.664062 18.515625 -16.5625 18.453125 -16.375 C 18.398438 -16.1875 18.363281 -16.09375 18.34375 -16.09375 C 18.34375 -16.070312 18.335938 -16.019531 18.328125 -15.9375 C 18.316406 -15.851562 18.3125 -15.820312 18.3125 -15.84375 C 18.289062 -15.800781 18.273438 -15.757812 18.265625 -15.71875 C 18.253906 -15.6875 18.234375 -15.628906 18.203125 -15.546875 C 18.160156 -15.492188 18.082031 -15.289062 17.96875 -14.9375 C 17.863281 -14.59375 17.703125 -14.101562 17.484375 -13.46875 C 17.421875 -13.269531 17.378906 -13.160156 17.359375 -13.140625 C 17.335938 -13.117188 17.320312 -13.070312 17.3125 -13 C 17.3125 -12.9375 17.300781 -12.875 17.28125 -12.8125 C 17.238281 -12.738281 17.21875 -12.679688 17.21875 -12.640625 C 17.175781 -12.554688 17.15625 -12.515625 17.15625 -12.515625 C 17.15625 -12.472656 17.144531 -12.425781 17.125 -12.375 C 17.101562 -12.3125 17.082031 -12.25 17.0625 -12.1875 C 17.039062 -12.132812 17.023438 -12.085938 17.015625 -12.046875 C 16.992188 -11.960938 16.972656 -11.898438 16.953125 -11.859375 C 16.929688 -11.816406 16.910156 -11.75 16.890625 -11.65625 C 16.867188 -11.59375 16.835938 -11.539062 16.796875 -11.5 L 16.796875 -11.453125 C 16.796875 -11.390625 16.71875 -11.109375 16.5625 -10.609375 C 16.40625 -10.117188 16.222656 -9.566406 16.015625 -8.953125 C 15.804688 -8.335938 15.601562 -7.738281 15.40625 -7.15625 C 15.207031 -6.582031 15.066406 -6.191406 14.984375 -5.984375 C 14.828125 -5.523438 14.710938 -5.179688 14.640625 -4.953125 C 14.578125 -4.722656 14.535156 -4.585938 14.515625 -4.546875 C 14.492188 -4.503906 14.472656 -4.445312 14.453125 -4.375 C 14.429688 -4.3125 14.410156 -4.25 14.390625 -4.1875 C 14.367188 -4.132812 14.347656 -4.066406 14.328125 -3.984375 C 14.328125 -3.898438 14.3125 -3.835938 14.28125 -3.796875 C 14.257812 -3.765625 14.226562 -3.695312 14.1875 -3.59375 C 14.1875 -3.550781 14.175781 -3.523438 14.15625 -3.515625 C 14.132812 -3.472656 14.125 -3.429688 14.125 -3.390625 L 13.890625 -2.765625 C 13.941406 -2.941406 13.984375 -3.0625 14.015625 -3.125 C 14.046875 -3.195312 14.066406 -3.238281 14.078125 -3.25 C 14.085938 -3.257812 14.09375 -3.257812 14.09375 -3.25 C 14.09375 -3.238281 14.09375 -3.253906 14.09375 -3.296875 C 14.09375 -3.273438 14.082031 -3.242188 14.0625 -3.203125 C 14.039062 -3.171875 13.984375 -3.023438 13.890625 -2.765625 L 13.890625 -2.703125 C 13.890625 -2.703125 13.863281 -2.628906 13.8125 -2.484375 C 13.757812 -2.335938 13.703125 -2.171875 13.640625 -1.984375 C 13.585938 -1.804688 13.53125 -1.644531 13.46875 -1.5 C 13.40625 -1.351562 13.375 -1.269531 13.375 -1.25 C 13.28125 -0.96875 13.234375 -0.828125 13.234375 -0.828125 L 13.234375 -0.75 C 13.191406 -0.6875 13.160156 -0.625 13.140625 -0.5625 C 13.117188 -0.5 13.109375 -0.460938 13.109375 -0.453125 C 13.109375 -0.410156 13.097656 -0.378906 13.078125 -0.359375 C 13.054688 -0.335938 13.03125 -0.257812 13 -0.125 C 12.976562 -0.101562 12.96875 -0.0703125 12.96875 -0.03125 C 12.945312 0.0078125 12.9375 0.046875 12.9375 0.078125 C 12.9375 0.109375 12.925781 0.140625 12.90625 0.171875 C 12.863281 0.253906 12.820312 0.347656 12.78125 0.453125 L 12.71875 0.59375 C 12.707031 0.613281 12.703125 0.644531 12.703125 0.6875 C 12.703125 0.707031 12.609375 0.984375 12.421875 1.515625 C 12.222656 2.066406 12.125 2.351562 12.125 2.375 L 12.125 2.46875 L 10.171875 2.46875 C 8.898438 2.46875 8.242188 2.445312 8.203125 2.40625 C 8.179688 2.382812 8.160156 2.316406 8.140625 2.203125 C 8.128906 2.097656 8.09375 1.957031 8.03125 1.78125 C 7.988281 1.644531 7.9375 1.488281 7.875 1.3125 C 7.820312 1.132812 7.785156 1.035156 7.765625 1.015625 C 7.742188 0.972656 7.710938 0.875 7.671875 0.71875 C 7.628906 0.570312 7.570312 0.382812 7.5 0.15625 C 7.28125 -0.519531 7.109375 -1.046875 6.984375 -1.421875 C 6.867188 -1.804688 6.789062 -2.046875 6.75 -2.140625 C 6.707031 -2.296875 6.660156 -2.457031 6.609375 -2.625 C 6.566406 -2.800781 6.492188 -3.035156 6.390625 -3.328125 L 6.15625 -4.078125 C 6.132812 -4.117188 6.101562 -4.21875 6.0625 -4.375 C 6.019531 -4.53125 5.984375 -4.65625 5.953125 -4.75 C 5.785156 -5.25 5.644531 -5.679688 5.53125 -6.046875 C 5.414062 -6.410156 5.328125 -6.722656 5.265625 -6.984375 C 5.203125 -7.160156 5.15625 -7.304688 5.125 -7.421875 C 5.09375 -7.546875 5.070312 -7.628906 5.0625 -7.671875 C 4.976562 -7.890625 4.882812 -8.15625 4.78125 -8.46875 C 4.6875 -8.789062 4.570312 -9.171875 4.4375 -9.609375 C 4.289062 -10.003906 4.207031 -10.28125 4.1875 -10.4375 C 4.132812 -10.632812 4.054688 -10.898438 3.953125 -11.234375 C 3.859375 -11.578125 3.738281 -11.972656 3.59375 -12.421875 C 3.5 -12.765625 3.40625 -13.066406 3.3125 -13.328125 C 3.226562 -13.597656 3.15625 -13.84375 3.09375 -14.0625 C 2.988281 -14.363281 2.910156 -14.597656 2.859375 -14.765625 C 2.816406 -14.929688 2.785156 -15.046875 2.765625 -15.109375 C 2.679688 -15.328125 2.613281 -15.535156 2.5625 -15.734375 C 2.519531 -15.929688 2.46875 -16.117188 2.40625 -16.296875 C 2.332031 -16.535156 2.257812 -16.75 2.1875 -16.9375 C 2.113281 -17.125 2.054688 -17.285156 2.015625 -17.421875 C 2.003906 -17.523438 1.960938 -17.691406 1.890625 -17.921875 C 1.816406 -18.160156 1.769531 -18.3125 1.75 -18.375 C 1.613281 -18.75 1.5 -19.085938 1.40625 -19.390625 C 1.320312 -19.703125 1.238281 -19.988281 1.15625 -20.25 Z M 14.09375 -3.265625 Z M 14.09375 -3.265625 "/></g></g></g><g fill="#201d1d" fill-opacity="1"><g transform="translate(270.829809, 192.155963)"><g><path d="M 3.1875 -20.578125 C 3.28125 -20.617188 5.960938 -20.617188 11.234375 -20.578125 L 19.328125 -20.578125 L 19.328125 -18.171875 L 12.71875 -18.171875 C 8.300781 -18.171875 6.082031 -18.160156 6.0625 -18.140625 C 6.039062 -18.117188 6.03125 -17.046875 6.03125 -14.921875 L 6.03125 -10.640625 L 12.109375 -10.640625 C 16.109375 -10.640625 18.109375 -10.617188 18.109375 -10.578125 L 18.109375 -8.234375 L 12.109375 -8.234375 C 8.097656 -8.234375 6.070312 -8.210938 6.03125 -8.171875 L 6.03125 -0.0625 L 6.0625 0.0625 L 19.328125 0.0625 L 19.328125 2.46875 L 2.96875 2.46875 L 2.96875 -20.578125 Z M 3.1875 -20.578125 "/></g></g></g><g fill="#201d1d" fill-opacity="1"><g transform="translate(299.303846, 192.155963)"><g><path d="M 3.1875 -20.578125 C 3.238281 -20.617188 3.535156 -20.617188 4.078125 -20.578125 L 6.125 -20.578125 L 6.390625 -20.09375 C 6.546875 -19.800781 6.65625 -19.625 6.71875 -19.5625 C 6.800781 -19.445312 6.84375 -19.390625 6.84375 -19.390625 C 6.84375 -19.367188 6.921875 -19.242188 7.078125 -19.015625 C 7.234375 -18.785156 7.390625 -18.515625 7.546875 -18.203125 C 7.742188 -17.859375 7.898438 -17.585938 8.015625 -17.390625 C 8.140625 -17.191406 8.222656 -17.054688 8.265625 -16.984375 C 8.285156 -16.941406 8.394531 -16.769531 8.59375 -16.46875 C 8.75 -16.195312 8.832031 -16.0625 8.84375 -16.0625 C 8.851562 -16.0625 8.859375 -16.050781 8.859375 -16.03125 C 8.859375 -16.03125 9 -15.8125 9.28125 -15.375 C 9.375 -15.175781 9.421875 -15.078125 9.421875 -15.078125 C 9.421875 -15.078125 9.453125 -15.046875 9.515625 -14.984375 C 9.554688 -14.941406 9.585938 -14.882812 9.609375 -14.8125 C 9.640625 -14.75 9.695312 -14.660156 9.78125 -14.546875 C 9.863281 -14.441406 9.941406 -14.316406 10.015625 -14.171875 C 10.097656 -14.035156 10.1875 -13.890625 10.28125 -13.734375 C 10.445312 -13.492188 10.601562 -13.25 10.75 -13 C 10.894531 -12.757812 11.039062 -12.507812 11.1875 -12.25 C 11.320312 -12.007812 11.457031 -11.773438 11.59375 -11.546875 C 11.726562 -11.316406 11.878906 -11.09375 12.046875 -10.875 C 12.085938 -10.84375 12.164062 -10.707031 12.28125 -10.46875 C 12.34375 -10.363281 12.382812 -10.285156 12.40625 -10.234375 C 12.4375 -10.191406 12.460938 -10.160156 12.484375 -10.140625 C 12.523438 -10.078125 12.550781 -10.039062 12.5625 -10.03125 C 12.570312 -10.019531 12.597656 -9.976562 12.640625 -9.90625 C 12.796875 -9.582031 12.925781 -9.375 13.03125 -9.28125 C 13.03125 -9.28125 13.066406 -9.21875 13.140625 -9.09375 C 13.179688 -9.019531 13.207031 -8.972656 13.21875 -8.953125 C 13.226562 -8.929688 13.320312 -8.769531 13.5 -8.46875 C 13.59375 -8.3125 13.671875 -8.1875 13.734375 -8.09375 C 13.796875 -8.007812 13.835938 -7.957031 13.859375 -7.9375 C 13.878906 -7.914062 13.898438 -7.878906 13.921875 -7.828125 C 13.941406 -7.785156 13.976562 -7.710938 14.03125 -7.609375 C 14.15625 -7.367188 14.273438 -7.179688 14.390625 -7.046875 L 14.5625 -6.78125 C 14.5625 -6.78125 14.644531 -6.648438 14.8125 -6.390625 C 14.90625 -6.234375 14.976562 -6.101562 15.03125 -6 C 15.082031 -5.90625 15.128906 -5.816406 15.171875 -5.734375 C 15.203125 -5.691406 15.265625 -5.585938 15.359375 -5.421875 C 15.460938 -5.253906 15.546875 -5.132812 15.609375 -5.0625 C 15.648438 -5.019531 15.679688 -4.96875 15.703125 -4.90625 C 15.722656 -4.84375 15.75 -4.789062 15.78125 -4.75 C 15.800781 -4.695312 15.832031 -4.640625 15.875 -4.578125 C 15.894531 -4.535156 15.925781 -4.484375 15.96875 -4.421875 C 16.007812 -4.367188 16.050781 -4.300781 16.09375 -4.21875 C 16.144531 -4.125 16.203125 -4.03125 16.265625 -3.9375 C 16.328125 -3.851562 16.375 -3.769531 16.40625 -3.6875 C 16.550781 -3.507812 16.644531 -3.367188 16.6875 -3.265625 C 16.71875 -3.234375 16.734375 -3.207031 16.734375 -3.1875 C 16.734375 -3.164062 16.734375 -3.15625 16.734375 -3.15625 C 16.734375 -3.15625 16.757812 -3.109375 16.8125 -3.015625 C 16.863281 -2.929688 16.914062 -2.835938 16.96875 -2.734375 C 17.03125 -2.640625 17.085938 -2.550781 17.140625 -2.46875 C 17.191406 -2.382812 17.226562 -2.332031 17.25 -2.3125 C 17.269531 -2.3125 17.28125 -5.347656 17.28125 -11.421875 C 17.28125 -17.503906 17.289062 -20.554688 17.3125 -20.578125 C 17.3125 -20.597656 17.804688 -20.609375 18.796875 -20.609375 L 20.28125 -20.609375 C 20.320312 -20.566406 20.320312 -16.710938 20.28125 -9.046875 L 20.28125 2.46875 L 18.828125 2.5 L 17.3125 2.5 C 17.289062 2.476562 17.21875 2.382812 17.09375 2.21875 C 16.976562 2.050781 16.851562 1.859375 16.71875 1.640625 C 16.59375 1.421875 16.46875 1.210938 16.34375 1.015625 C 16.226562 0.816406 16.148438 0.675781 16.109375 0.59375 C 16.035156 0.476562 15.96875 0.375 15.90625 0.28125 C 15.84375 0.195312 15.796875 0.113281 15.765625 0.03125 C 15.703125 -0.03125 15.5625 -0.25 15.34375 -0.625 C 15.300781 -0.707031 15.242188 -0.804688 15.171875 -0.921875 L 15.109375 -1.015625 C 15.109375 -1.015625 15.035156 -1.132812 14.890625 -1.375 C 14.753906 -1.625 14.597656 -1.894531 14.421875 -2.1875 C 14.242188 -2.488281 14.070312 -2.773438 13.90625 -3.046875 C 13.75 -3.316406 13.65625 -3.472656 13.625 -3.515625 C 13.4375 -3.785156 13.265625 -4.046875 13.109375 -4.296875 C 12.953125 -4.546875 12.816406 -4.78125 12.703125 -5 C 12.640625 -5.09375 12.550781 -5.226562 12.4375 -5.40625 C 12.332031 -5.582031 12.257812 -5.691406 12.21875 -5.734375 C 12.175781 -5.835938 12.128906 -5.921875 12.078125 -5.984375 C 12.035156 -6.054688 11.984375 -6.132812 11.921875 -6.21875 C 11.765625 -6.507812 11.609375 -6.773438 11.453125 -7.015625 C 11.304688 -7.253906 11.1875 -7.453125 11.09375 -7.609375 C 11.03125 -7.671875 10.898438 -7.867188 10.703125 -8.203125 C 10.328125 -8.835938 10.097656 -9.207031 10.015625 -9.3125 C 9.984375 -9.34375 9.925781 -9.4375 9.84375 -9.59375 C 9.757812 -9.757812 9.640625 -9.960938 9.484375 -10.203125 C 9.398438 -10.335938 9.304688 -10.5 9.203125 -10.6875 C 9.097656 -10.875 8.972656 -11.085938 8.828125 -11.328125 C 8.566406 -11.679688 8.347656 -12.039062 8.171875 -12.40625 C 8.117188 -12.457031 8.035156 -12.578125 7.921875 -12.765625 C 7.816406 -12.953125 7.742188 -13.078125 7.703125 -13.140625 C 7.546875 -13.398438 7.457031 -13.539062 7.4375 -13.5625 L 7.203125 -13.921875 C 7.160156 -14.035156 7.117188 -14.113281 7.078125 -14.15625 C 7.054688 -14.195312 7.035156 -14.234375 7.015625 -14.265625 C 6.972656 -14.328125 6.929688 -14.390625 6.890625 -14.453125 C 6.859375 -14.523438 6.816406 -14.609375 6.765625 -14.703125 C 6.710938 -14.796875 6.648438 -14.910156 6.578125 -15.046875 C 6.410156 -15.285156 6.285156 -15.46875 6.203125 -15.59375 C 6.128906 -15.71875 6.082031 -15.800781 6.0625 -15.84375 C 6.039062 -15.84375 6.03125 -12.789062 6.03125 -6.6875 L 6.03125 2.5 L 4.578125 2.5 C 3.585938 2.5 3.082031 2.488281 3.0625 2.46875 L 2.96875 2.46875 L 2.96875 -20.578125 Z M 3.1875 -20.578125 "/></g></g></g><g clip-path="url(#a18165cf21)"><g clip-path="url(#279d0e89b4)"><path fill="#201d1d" d="M 180.21875 176.25 L 194.78125 176.25 L 194.78125 190.8125 L 180.21875 190.8125 Z M 180.21875 176.25 " fill-opacity="1" fill-rule="nonzero"/></g></g><g clip-path="url(#26c1d0fcd2)"><g clip-path="url(#a0513e86d3)"><path fill="#201d1d" d="M 182.105469 178.136719 L 192.894531 178.136719 L 192.894531 189.558594 L 182.105469 189.558594 Z M 182.105469 178.136719 " fill-opacity="1" fill-rule="nonzero"/></g></g><g clip-path="url(#0e60811fc3)"><g clip-path="url(#6dcba86ec1)"><path stroke-linecap="butt" transform="matrix(0.282942, 0, 0, 0.282942, 182.105515, 178.134848)" fill="none" stroke-linejoin="miter" d="M 19.065706 0.00661354 L 38.131576 15.400129 L 30.842091 40.333482 L 7.275516 40.333482 L -0.000163255 15.400129 Z M 19.065706 0.00661354 " stroke="#ffffff" stroke-width="10.602885" stroke-opacity="1" stroke-miterlimit="4"/></g></g></svg>